<svg xmlns="http://www.w3.org/2000/svg" xmlns:xlink="http://www.w3.org/1999/xlink" width="200" zoomAndPan="magnify" viewBox="0 0 150 149.999998" height="200" preserveAspectRatio="xMidYMid meet" version="1.0"><defs><clipPath id="cdbd712e35"><path d="M 17.171875 19.488281 L 49.574219 19.488281 L 49.574219 51.890625 L 17.171875 51.890625 Z M 17.171875 19.488281 " clip-rule="nonzero"/></clipPath><clipPath id="3c5edb0eed"><path d="M 33.375 19.488281 C 24.425781 19.488281 17.171875 26.742188 17.171875 35.691406 C 17.171875 44.636719 24.425781 51.890625 33.375 51.890625 C 42.320312 51.890625 49.574219 44.636719 49.574219 35.691406 C 49.574219 26.742188 42.320312 19.488281 33.375 19.488281 Z M 33.375 19.488281 " clip-rule="nonzero"/></clipPath><clipPath id="df56538201"><path d="M 0.171875 0.488281 L 32.574219 0.488281 L 32.574219 32.890625 L 0.171875 32.890625 Z M 0.171875 0.488281 " clip-rule="nonzero"/></clipPath><clipPath id="b0fe731e69"><path d="M 16.375 0.488281 C 7.425781 0.488281 0.171875 7.742188 0.171875 16.691406 C 0.171875 25.636719 7.425781 32.890625 16.375 32.890625 C 25.320312 32.890625 32.574219 25.636719 32.574219 16.691406 C 32.574219 7.742188 25.320312 0.488281 16.375 0.488281 Z M 16.375 0.488281 " clip-rule="nonzero"/></clipPath><clipPath id="29a179f186"><rect x="0" width="33" y="0" height="33"/></clipPath><clipPath id="a25f916fe0"><path d="M 101.726562 94.632812 L 128.050781 94.632812 L 128.050781 120.957031 L 101.726562 120.957031 Z M 101.726562 94.632812 " clip-rule="nonzero"/></clipPath><clipPath id="cef7490b39"><path d="M 114.890625 94.632812 C 107.621094 94.632812 101.726562 100.527344 101.726562 107.792969 C 101.726562 115.0625 107.621094 120.957031 114.890625 120.957031 C 122.15625 120.957031 128.050781 115.0625 128.050781 107.792969 C 128.050781 100.527344 122.15625 94.632812 114.890625 94.632812 Z M 114.890625 94.632812 " clip-rule="nonzero"/></clipPath><clipPath id="b9eb8fbcc3"><path d="M 0.726562 0.632812 L 27.050781 0.632812 L 27.050781 26.957031 L 0.726562 26.957031 Z M 0.726562 0.632812 " clip-rule="nonzero"/></clipPath><clipPath id="af08d9c6b9"><path d="M 13.890625 0.632812 C 6.621094 0.632812 0.726562 6.527344 0.726562 13.792969 C 0.726562 21.0625 6.621094 26.957031 13.890625 26.957031 C 21.15625 26.957031 27.050781 21.0625 27.050781 13.792969 C 27.050781 6.527344 21.15625 0.632812 13.890625 0.632812 Z M 13.890625 0.632812 " clip-rule="nonzero"/></clipPath><clipPath id="2d2f4460a9"><rect x="0" width="28" y="0" height="27"/></clipPath><clipPath id="a11ec82fc3"><path d="M 107.726562 100.632812 L 122.050781 100.632812 L 122.050781 114.957031 L 107.726562 114.957031 Z M 107.726562 100.632812 " clip-rule="nonzero"/></clipPath><clipPath id="7feac8ce52"><path d="M 114.890625 100.632812 C 110.933594 100.632812 107.726562 103.839844 107.726562 107.792969 C 107.726562 111.75 110.933594 114.957031 114.890625 114.957031 C 118.84375 114.957031 122.050781 111.75 122.050781 107.792969 C 122.050781 103.839844 118.84375 100.632812 114.890625 100.632812 Z M 114.890625 100.632812 " clip-rule="nonzero"/></clipPath><clipPath id="da1aaaa125"><path d="M 0.726562 0.632812 L 15.050781 0.632812 L 15.050781 14.957031 L 0.726562 14.957031 Z M 0.726562 0.632812 " clip-rule="nonzero"/></clipPath><clipPath id="2782aeb6a7"><path d="M 7.890625 0.632812 C 3.933594 0.632812 0.726562 3.839844 0.726562 7.792969 C 0.726562 11.75 3.933594 14.957031 7.890625 14.957031 C 11.84375 14.957031 15.050781 11.75 15.050781 7.792969 C 15.050781 3.839844 11.84375 0.632812 7.890625 0.632812 Z M 7.890625 0.632812 " clip-rule="nonzero"/></clipPath><clipPath id="59a9d433e0"><rect x="0" width="16" y="0" height="15"/></clipPath><clipPath id="f8ca49f7ba"><path d="M 10.511719 102.453125 L 39.003906 102.453125 L 39.003906 131.816406 L 10.511719 131.816406 Z M 10.511719 102.453125 " clip-rule="nonzero"/></clipPath><clipPath id="e74a35b39c"><path d="M 0.511719 0.453125 L 29.003906 0.453125 L 29.003906 29.816406 L 0.511719 29.816406 Z M 0.511719 0.453125 " clip-rule="nonzero"/></clipPath><clipPath id="e5a7a90855"><rect x="0" width="30" y="0" height="30"/></clipPath><clipPath id="08d0b4e316"><path d="M 104.097656 35.691406 L 132 35.691406 L 132 60.070312 L 104.097656 60.070312 Z M 104.097656 35.691406 " clip-rule="nonzero"/></clipPath><clipPath id="5c0269dd33"><path d="M 118.027344 35.691406 L 131.960938 60.070312 L 104.097656 60.070312 Z M 118.027344 35.691406 " clip-rule="nonzero"/></clipPath><clipPath id="56e44e91e3"><path d="M 0.0976562 0.691406 L 28 0.691406 L 28 25.070312 L 0.0976562 25.070312 Z M 0.0976562 0.691406 " clip-rule="nonzero"/></clipPath><clipPath id="376ad52e95"><path d="M 14.027344 0.691406 L 27.960938 25.070312 L 0.0976562 25.070312 Z M 14.027344 0.691406 " clip-rule="nonzero"/></clipPath><clipPath id="311b83ad69"><rect x="0" width="28" y="0" height="26"/></clipPath></defs><rect x="-15" width="180" fill="#ffffff" y="-15" height="179.999997" fill-opacity="1"/><rect x="-15" width="180" fill="#f8f8f7" y="-15" height="179.999997" fill-opacity="1"/><g clip-path="url(#cdbd712e35)"><g clip-path="url(#3c5edb0eed)"><g transform="matrix(1, 0, 0, 1, 17, 19)"><g clip-path="url(#29a179f186)"><g clip-path="url(#df56538201)"><g clip-path="url(#b0fe731e69)"><path fill="#401268" d="M 0.171875 0.488281 L 32.574219 0.488281 L 32.574219 32.890625 L 0.171875 32.890625 Z M 0.171875 0.488281 " fill-opacity="1" fill-rule="nonzero"/></g></g></g></g></g></g><g clip-path="url(#a25f916fe0)"><g clip-path="url(#cef7490b39)"><g transform="matrix(1, 0, 0, 1, 101, 94)"><g clip-path="url(#2d2f4460a9)"><g clip-path="url(#b9eb8fbcc3)"><g clip-path="url(#af08d9c6b9)"><path fill="#401268" d="M 0.726562 0.632812 L 27.050781 0.632812 L 27.050781 26.957031 L 0.726562 26.957031 Z M 0.726562 0.632812 " fill-opacity="1" fill-rule="nonzero"/></g></g></g></g></g></g><g clip-path="url(#a11ec82fc3)"><g clip-path="url(#7feac8ce52)"><g transform="matrix(1, 0, 0, 1, 107, 100)"><g clip-path="url(#59a9d433e0)"><g clip-path="url(#da1aaaa125)"><g clip-path="url(#2782aeb6a7)"><path fill="#ffffff" d="M 0.726562 0.632812 L 15.050781 0.632812 L 15.050781 14.957031 L 0.726562 14.957031 Z M 0.726562 0.632812 " fill-opacity="1" fill-rule="nonzero"/></g></g></g></g></g></g><g clip-path="url(#f8ca49f7ba)"><g transform="matrix(1, 0, 0, 1, 10, 102)"><g clip-path="url(#e5a7a90855)"><g clip-path="url(#e74a35b39c)"><path fill="#401268" d="M 0.511719 0.453125 L 29.003906 0.453125 L 29.003906 29.835938 L 0.511719 29.835938 Z M 0.511719 0.453125 " fill-opacity="1" fill-rule="nonzero"/></g></g></g></g><g clip-path="url(#08d0b4e316)"><g clip-path="url(#5c0269dd33)"><g transform="matrix(1, 0, 0, 1, 104, 35)"><g clip-path="url(#311b83ad69)"><g clip-path="url(#56e44e91e3)"><g clip-path="url(#376ad52e95)"><path fill="#401268" d="M 0.0976562 0.691406 L 28 0.691406 L 28 25.070312 L 0.0976562 25.070312 Z M 0.0976562 0.691406 " fill-opacity="1" fill-rule="nonzero"/></g></g></g></g></g></g></svg>