<svg xmlns="http://www.w3.org/2000/svg" xmlns:xlink="http://www.w3.org/1999/xlink" version="1.1" x="0px" y="0px" viewBox="0 0 33 41.25" enable-background="new 0 0 33 33" xml:space="preserve"><path d="M30.459,25.896c-2.196-2.195-6.588-2.402-6.588-2.402c1.412-1.932,4.862-1.52,4.393-10.736  C27.793,3.54,16.5,1.145,16.5,1.145S5.207,3.54,4.736,12.758c-0.47,9.217,2.98,8.805,4.393,10.736c0,0-4.392,0.207-6.588,2.402  c-2.195,2.195-2.039,5.959-2.039,5.959h15.215h1.566h15.215C32.498,31.855,32.654,28.092,30.459,25.896z M16.5,27.771  c-5.488-3.631-7.816-11.609-8.15-15.959c-0.332-4.35,8.15-4.727,8.15-4.727s8.482,0.377,8.15,4.727  C24.316,16.162,21.988,24.141,16.5,27.771z"/><path d="M22.146,18.297c-0.354,0.707-1.646,1.883-2.588,1.059c-0.941-0.822-3.059-1.059-3.059-1.059s-2.117,0.236-3.059,1.059  c-0.941,0.824-2.234-0.352-2.588-1.059c0,0-0.237,3.05,2.823,3.063c1.528,0.006,1.883-1.294,2.823-1.531  c0.94,0.237,1.295,1.537,2.823,1.531C22.385,21.347,22.146,18.297,22.146,18.297z"/><path d="M16.5,23.264c0,0-1.177,0-1.059,0.94c0.117,0.94,1.059,2.705,1.059,2.705s0.941-1.765,1.059-2.705  C17.677,23.264,16.5,23.264,16.5,23.264z"/><path d="M15.071,13.148c0,0-0.823-1.586-2.117-1.205c-1.294,0.382-2.94,1.205-2.94,1.205s1.231,0.273,2.957,0.43  C14.695,13.735,15.071,13.148,15.071,13.148z"/><path d="M17.929,13.148c0,0,0.823-1.586,2.117-1.205c1.294,0.382,2.94,1.205,2.94,1.205s-1.231,0.273-2.957,0.43  C18.305,13.735,17.929,13.148,17.929,13.148z"/><path d="M14.816,11.239c0,0-2.078-2.637-3.137-2.06c-1.059,0.576-1.411,1.098-1.411,1.098S11.72,10.018,14.816,11.239z"/><path d="M18.184,11.239c0,0,2.078-2.637,3.137-2.06c1.059,0.576,1.411,1.098,1.411,1.098S21.28,10.018,18.184,11.239z"/><text x="0" y="48" fill="#000000" font-size="5px" font-weight="bold" font-family="'Helvetica Neue', Helvetica, Arial-Unicode, Arial, Sans-serif">Created by Thuy Nguyen</text><text x="0" y="53" fill="#000000" font-size="5px" font-weight="bold" font-family="'Helvetica Neue', Helvetica, Arial-Unicode, Arial, Sans-serif">from the Noun Project</text></svg>